<?xml version="1.0"?>
<svg version="1.1" xmlns="http://www.w3.org/2000/svg" width="250" height="124"><path fill="#" d="M33.998,84.08l1.012-5.06l4.37,0l0,10.58l-23,0l0-3.91l3.45-1.38l0-21.62l-3.45-1.38l0-3.91l14.03-0.23l0,4.14l-3.45,1.38l0,21.39l7.038,0z M60.74746,56.618c9.2,0,14.49,6.072,14.49,16.33c0,10.35-6.21,17.25-15.41,17.25s-14.26-5.75-14.26-16.56c0-10.58,5.842-17.02,15.18-17.02z M60.51746,62.368c-4.6,0-7.13,2.852-7.13,11.04c0,7.59,2.07,11.04,6.67,11.04s7.36-2.99,7.36-11.27c0-7.59-2.3-10.81-6.9-10.81z M105.20692,67.06l-1.15-3.956s-2.162-0.736-5.198-0.736c-4.922,0-7.682,3.588-7.682,11.27c0,7.452,2.898,10.672,7.82,10.672c2.392,0,5.06-0.828,5.06-0.828l0-5.796l-3.45-1.058l0-3.772l13.248-0.23l0,4.002l-3.128,1.058l0,9.384s-4.738,3.082-12.512,3.082c-9.338,0-14.72-5.612-14.72-16.284c0-10.81,6.072-17.25,15.502-17.25c5.566,0,10.718,2.162,10.718,2.162l-0.23,8.28l-4.278,0z M136.37238,56.618c9.2,0,14.49,6.072,14.49,16.33c0,10.35-6.21,17.25-15.41,17.25s-14.26-5.75-14.26-16.56c0-10.58,5.842-17.02,15.18-17.02z M136.14238,62.368c-4.6,0-7.13,2.852-7.13,11.04c0,7.59,2.07,11.04,6.67,11.04s7.36-2.99,7.36-11.27c0-7.59-2.3-10.81-6.9-10.81z"/><path fill="#" d=""/></svg>
